#!OML:ASF F:\VICON\USERDATA\INSTALL\Justin_Nancy\Justin_Nancy.ASF
:FULLY-SPECIFIED
:DEGREES
17
root 0.728505 17.3495 -24.0151 -1.24944 -2.28832 -4.27342
lowerback 6.55619 0.3064 2.27973
upperback 0.336919 0.707517 3.76359
thorax -3.3523 0.34375 2.54658
lowerneck -14.1695 -2.57132 -8.28212
upperneck 21.0594 -2.28644 3.00115
head 9.09168 -1.41138 2.1336
rclavicle -1.18774e-014 -3.18055e-015
rhumerus -32.5471 -11.0322 -77.8364
rradius 30.5633
rwrist 7.18986
rhand -13.6779 11.2162
rfingers 7.12502
rthumb 12.4397 -18.3936
lclavicle -1.18774e-014 -3.18055e-015
lhumerus -32.9652 1.28517 87.1472
lradius 31.5191
lwrist -6.16559
lhand -16.8557 22.1935
lfingers 7.12502
lthumb 9.37461 51.965
rfemur -1.65482 6.12582 31.8208
rtibia 25.0236
rfoot -14.9674 -7.5393
rtoes -1.44894
lfemur -30.8981 3.84618 -16.413
ltibia 60.0023
lfoot -8.90109 3.77369
ltoes -9.06956
18
root 0.727608 17.3283 -23.796 -1.1369 -2.27796 -4.64166
lowerback 6.75437 0.263315 2.6334
upperback 0.183321 0.697622 3.85776
thorax -3.61999 0.33286 2.44729
lowerneck -13.8721 -2.52781 -8.34419
upperneck 20.8274 -2.23147 2.97722
head 8.9542 -1.39121 2.14216
rclavicle -2.23633e-015 1.03368e-014
rhumerus -32.1559 -9.88523 -78.2179
rradius 31.3151
rwrist 6.54254
rhand -14.4801 12.3364
rfingers 7.12502
rthumb 11.6662 -17.3188
lclavicle -2.23633e-015 1.03368e-014
lhumerus -33.7578 1.15003 87.3896
lradius 31.4538
lwrist -5.8766
lhand -16.2456 23.4764
lfingers 7.12502
lthumb 9.96321 53.2206
rfemur -0.582799 6.24644 32.4049
rtibia 24.3494
rfoot -15.1201 -8.10956
rtoes -0.921597
lfemur -31.9028 3.60943 -16.0342
ltibia 58.2096
lfoot -9.49374 4.61049
ltoes -6.77869
19
root 0.730719 17.3089 -23.5754 -1.07389 -2.22273 -4.82517
lowerback 6.83103 0.28883 2.8682
upperback 0.279458 0.748762 3.84769
thorax -3.56144 0.354516 2.29928
lowerneck -14.1345 -2.54438 -8.24206
upperneck 20.682 -2.25326 2.97952
head 8.95201 -1.38848 2.12073
rclavicle 9.16894e-015 4.77083e-015
rhumerus -31.3169 -8.97055 -78.6728
rradius 32.3768
rwrist 5.42883
rhand -14.3012 11.8346
rfingers 7.12502
rthumb 11.8387 -17.8108
lclavicle 9.16894e-015 4.77083e-015
lhumerus -34.1496 0.610438 87.7539
lradius 31.4733
lwrist -4.85528
lhand -10.5368 31.6382
lfingers 7.12502
lthumb 15.4667 61.0395
rfemur 0.61173 6.26453 32.7906
rtibia 23.6742
rfoot -15.7336 -8.53362
rtoes 1.02055
lfemur -32.7001 3.2542 -15.8395
ltibia 56.1718
lfoot -9.37715 5.10389
ltoes -5.92336
20
root 0.740674 17.2912 -23.3468 -0.768882 -2.4044 -4.87515
lowerback 6.61447 0.395416 2.94138
upperback 0.254114 0.885989 3.86062
thorax -3.46796 0.422126 2.25896
lowerneck -14.2711 -2.56507 -8.24507
upperneck 20.5641 -2.27021 2.99175
head 8.93776 -1.39218 2.12164
rclavicle 3.35449e-015 -3.26007e-014
rhumerus -30.6329 -7.9192 -78.9323
rradius 33.4765
rwrist 4.28545
rhand -13.6789 10.8324
rfingers 7.12502
rthumb 12.4387 -18.7774
lclavicle 3.35449e-015 -3.26007e-014
lhumerus -34.7016 0.51386 87.9738
lradius 31.3536
lwrist -4.82929
lhand -12.0054 23.8814
lfingers 7.12502
lthumb 14.0518 53.3864
rfemur 1.62109 6.16862 32.8967
rtibia 22.9131
rfoot -16.1282 -8.73058
rtoes 2.26864
lfemur -33.5123 2.95484 -15.7486
ltibia 53.8742
lfoot -9.20115 5.48809
ltoes -3.48227
21
root 0.749924 17.2759 -23.1124 -0.439168 -2.73641 -4.86736
lowerback 6.4253 0.486181 2.94201
upperback 0.15409 1.00256 3.89497
thorax -3.46828 0.480186 2.28444
lowerneck -14.186 -2.51146 -8.24076
upperneck 20.2428 -2.17736 2.88217
head 8.80542 -1.35479 2.09252
rclavicle -4.64659e-015 -4.05521e-014
rhumerus -30.0162 -6.99931 -79.0654
rradius 34.3151
rwrist 3.69167
rhand -13.3648 9.75626
rfingers 7.12502
rthumb 12.7415 -19.835
lclavicle -4.64659e-015 -4.05521e-014
lhumerus -35.3863 0.776419 88.0526
lradius 31.1981
lwrist -5.4059
lhand -10.8563 26.3975
lfingers 7.12502
lthumb 15.1589 55.8223
rfemur 2.55589 6.14023 32.9189
rtibia 22.1047
rfoot -16.1142 -9.14241
rtoes 1.37812
lfemur -34.2036 2.69608 -15.6763
ltibia 51.3381
lfoot -8.94698 6.18489
ltoes -2.82999
22
root 0.754801 17.2552 -22.8802 -0.301933 -2.95834 -5.08354
lowerback 6.43565 0.515066 3.19447
upperback 0.176311 1.06033 3.93751
thorax -3.44863 0.505089 2.18157
lowerneck -14.7469 -2.43048 -8.20416
upperneck 20.5619 -2.02218 2.87565
head 9.00783 -1.28179 2.10257
rclavicle 9.39258e-015 -1.59028e-015
rhumerus -29.1933 -6.17961 -79.28
rradius 34.843
rwrist 3.44216
rhand -13.5625 10.0629
rfingers 7.12502
rthumb 12.5509 -19.5401
lclavicle 9.39258e-015 -1.59028e-015
lhumerus -35.8706 0.912035 88.1216
lradius 31.0065
lwrist -5.50151
lhand -10.5692 27.4712
lfingers 7.12502
lthumb 15.4354 56.8749
rfemur 3.72012 6.19718 33.2794
rtibia 21.1773
rfoot -16.0523 -9.62884
rtoes 1.13699
lfemur -34.6996 2.23928 -15.2953
ltibia 48.6136
lfoot -8.31645 6.91756
ltoes -4.49889
23
root 0.761583 17.2362 -22.657 -0.067446 -2.99209 -5.29716
lowerback 6.33931 0.578647 3.58087
upperback 0.20619 1.16249 3.85145
thorax -3.35569 0.549705 1.86675
lowerneck -15.2403 -2.4514 -8.11101
upperneck 20.9509 -2.0701 3.04082
head 9.23563 -1.28229 2.13929
rclavicle -4.34841e-015 2.62396e-014
rhumerus -28.515 -5.62583 -79.6046
rradius 35.732
rwrist 3.14004
rhand -13.9249 12.5966
rfingers 7.12502
rthumb 12.2015 -17.0275
lclavicle -4.34841e-015 2.62396e-014
lhumerus -35.87 0.72453 88.1629
lradius 30.4153
lwrist -5.44736
lhand -10.6844 27.6912
lfingers 7.12502
lthumb 15.3245 57.1034
rfemur 4.88591 6.15334 33.6056
rtibia 20.0724
rfoot -16.1221 -9.85027
rtoes 1.17803
lfemur -35.2762 1.60167 -14.8563
ltibia 45.7577
lfoot -7.39217 7.18678
ltoes -5.78425
24
root 0.769209 17.2193 -22.4288 0.227506 -3.2022 -5.37618
lowerback 6.20846 0.728184 3.67077
upperback 0.145071 1.3622 3.82522
thorax -3.34426 0.647203 1.77235
lowerneck -15.0679 -2.61232 -8.35548
upperneck 20.9271 -2.31292 3.31751
head 9.21681 -1.38574 2.24582
rclavicle -2.38045e-014 -4.05521e-014
rhumerus -28.0231 -4.79168 -79.7859
rradius 36.8637
rwrist 2.47265
rhand -13.8836 13.8898
rfingers 7.12502
rthumb 12.2413 -15.7319
lclavicle -2.38045e-014 -4.05521e-014
lhumerus -36.0157 0.898102 88.1508
lradius 29.8526
lwrist -5.94869
lhand -10.2651 27.5081
lfingers 7.12502
lthumb 15.7284 56.889
rfemur 6.07778 6.28829 33.7666
rtibia 18.8438
rfoot -16.0608 -10.0758
rtoes 0.688988
lfemur -35.7421 0.838485 -14.4024
ltibia 42.8093
lfoot -6.43678 7.46455
ltoes -5.28784
25
root 0.779029 17.2008 -22.1916 0.486977 -3.54096 -5.51744
lowerback 6.2573 0.836826 3.81294
upperback 0.0157988 1.52931 3.87843
thorax -3.50473 0.725929 1.73213
lowerneck -14.8492 -2.74025 -8.65605
upperneck 20.9508 -2.46389 3.43246
head 9.20114 -1.46995 2.31789
rclavicle 1.80149e-014 4.45278e-014
rhumerus -27.4504 -4.04992 -79.7673
rradius 37.6
rwrist 1.95849
rhand -11.733 5.31059
rfingers 7.12502
rthumb 14.3142 -24.176
lclavicle 1.80149e-014 4.45278e-014
lhumerus -36.6273 1.21991 88.1405
lradius 29.6561
lwrist -6.34548
lhand -9.64909 27.5707
lfingers 7.12502
lthumb 16.3215 56.9039
rfemur 7.41525 6.35801 33.9441
rtibia 17.5693
rfoot -16.1312 -10.1024
rtoes 0.691583
lfemur -36.0701 0.162102 -13.8252
ltibia 39.8013
lfoot -5.21402 7.60271
ltoes -5.62874
26
root 0.788473 17.1737 -21.9592 0.863841 -3.86803 -5.62151
lowerback 6.18635 0.909443 3.91745
upperback -0.101547 1.63706 3.9241
thorax -3.58571 0.776449 1.71201
lowerneck -14.8792 -2.70694 -8.76354
upperneck 20.7825 -2.38496 3.42843
head 9.145 -1.43885 2.34238
rclavicle 1.25483e-014 -2.46493e-014
rhumerus -26.7505 -3.46499 -79.7172
rradius 38.0942
rwrist 1.5745
rhand -13.8616 10.7815
rfingers 7.12502
rthumb 12.2625 -18.839
lclavicle 1.25483e-014 -2.46493e-014
lhumerus -37.266 1.67807 88.0763
lradius 29.5725
lwrist -6.49503
lhand -9.63257 27.7547
lfingers 7.12502
lthumb 16.3375 57.0865
rfemur 8.62984 6.36374 34.0009
rtibia 16.2731
rfoot -16.1301 -9.94064
rtoes 1.09897
lfemur -36.4649 -0.605352 -13.1872
ltibia 36.7705
lfoot -3.88554 7.62247
ltoes -5.07218
27
root 0.799047 17.1521 -21.7208 1.19043 -4.46289 -5.6186
lowerback 5.9602 1.12438 3.98165
upperback -0.152852 1.91332 3.87045
thorax -3.50831 0.912648 1.59932
lowerneck -14.966 -2.7099 -8.79421
upperneck 20.7048 -2.39611 3.53205
head 9.13603 -1.43316 2.38076
rclavicle 2.83268e-015 -7.15625e-015
rhumerus -26.1583 -2.95386 -79.7717
rradius 38.7181
rwrist 1.10352
rhand -15.1082 12.4563
rfingers 7.12502
rthumb 11.0604 -17.2323
lclavicle 2.83268e-015 -7.15625e-015
lhumerus -37.68 2.05994 87.9448
lradius 29.146
lwrist -6.58509
lhand -10.0625 27.3136
lfingers 7.12502
lthumb 15.9234 56.679
rfemur 9.88373 6.42036 33.8391
rtibia 14.955
rfoot -15.8697 -9.55595
rtoes 0.202858
lfemur -36.5924 -1.52285 -12.4624
ltibia 33.8005
lfoot -3.22833 8.15077
ltoes -3.87847
